<svg xmlns="http://www.w3.org/2000/svg" width="399.864" height="52.749" viewBox="0 0 399.864 52.749"><g transform="translate(244.449 39.562)"><path d="M567.915,127.871H566.62l2.73-9.218-6.207,9.218h-1.253l-.8-9.218-2.688,9.218h-1.267l3-10.175h2.013l.746,8.669,5.8-8.669h2.238Z" transform="translate(-557.134 -117.584)" fill="#00126f"/><path d="M592.322,125.661a3.377,3.377,0,0,1-.063.619q-.063.338-.176.76c-.028.084-.063.2-.1.352s-.087.306-.134.464-.094.314-.141.465-.085.267-.113.352q-.085.281-.176.605c-.062.216-.12.436-.176.661s-.092.432-.134.648-.082.422-.119.619H589.8a3.35,3.35,0,0,1,.043-.352q.042-.281.126-.647a3.472,3.472,0,0,1-1.174.858,3.282,3.282,0,0,1-1.3.268,2.789,2.789,0,0,1-.809-.112,1.912,1.912,0,0,1-.648-.331,1.5,1.5,0,0,1-.429-.549,1.786,1.786,0,0,1-.155-.767,2.164,2.164,0,0,1,.408-1.316,2.805,2.805,0,0,1,1.1-.88,4.167,4.167,0,0,1,1.027-.317,12.911,12.911,0,0,1,1.421-.162c.188-.019.42-.03.7-.035s.551-.007.823-.007l.1-.366a2.772,2.772,0,0,0,.1-.689.983.983,0,0,0-.316-.774,1.468,1.468,0,0,0-.992-.281,1.958,1.958,0,0,0-1.168.323,1.516,1.516,0,0,0-.591.915h-1.224a2.234,2.234,0,0,1,.338-.872,2.165,2.165,0,0,1,.654-.634,3.074,3.074,0,0,1,.936-.38,5.007,5.007,0,0,1,1.154-.127,3.194,3.194,0,0,1,1.752.422A1.408,1.408,0,0,1,592.322,125.661Zm-1.6,1.942q-.689.028-1.182.063t-.845.091a3.688,3.688,0,0,0-.6.141,4.615,4.615,0,0,0-.458.183,1.789,1.789,0,0,0-.675.57,1.344,1.344,0,0,0-.254.795,1.014,1.014,0,0,0,.316.809,1.325,1.325,0,0,0,.894.275,1.893,1.893,0,0,0,1.133-.359,3.913,3.913,0,0,0,.865-.852,4,4,0,0,0,.289-.457,6.653,6.653,0,0,0,.288-.627Z" transform="translate(-572.182 -120.918)" fill="#00126f"/><path d="M608.7,125.675a3.367,3.367,0,0,1-.1.746q-.1.422-.2.746l-1.2,4.039h-1.239l1.239-4.138c.066-.216.12-.423.162-.619a2.7,2.7,0,0,0,.063-.563.956.956,0,0,0-.288-.725,1.149,1.149,0,0,0-.823-.274,2.5,2.5,0,0,0-1.745.8,3.74,3.74,0,0,0-.669.859,5.381,5.381,0,0,0-.443,1.07l-1.07,3.589h-1.238l1.576-5.264q.127-.422.254-.9t.239-.929h1.239l-.31,1.154a4.391,4.391,0,0,1,1.232-.978,2.964,2.964,0,0,1,1.359-.317,2.1,2.1,0,0,1,1.435.457A1.575,1.575,0,0,1,608.7,125.675Z" transform="translate(-580.527 -120.918)" fill="#00126f"/><path d="M625.266,129.536q-.155.506-.267.943t-.226.887h-1.238l.3-1.154a4.439,4.439,0,0,1-1.225.979,2.927,2.927,0,0,1-1.351.317,2.093,2.093,0,0,1-1.442-.458,1.582,1.582,0,0,1-.513-1.245,3.314,3.314,0,0,1,.1-.746c.065-.281.131-.53.2-.746l1.2-4.039h1.225l-1.225,4.138q-.07.268-.148.6a2.63,2.63,0,0,0-.077.6.97.97,0,0,0,.267.717,1.133,1.133,0,0,0,.83.268,2.515,2.515,0,0,0,1.759-.8,3.565,3.565,0,0,0,.668-.88,5.628,5.628,0,0,0,.429-1.049l1.084-3.589h1.238Z" transform="translate(-590.166 -121.078)" fill="#00126f"/><path d="M641.834,118.485a2.615,2.615,0,0,0-.661-.085,1.505,1.505,0,0,0-.563.091.965.965,0,0,0-.38.273,1.569,1.569,0,0,0-.261.454q-.1.273-.218.622l-.254.825h1.548l-.254.873h-1.548l-1.858,6.221h-1.21l1.829-6.221h-1.45l.253-.873h1.45l.323-1.041a6.3,6.3,0,0,1,.394-.985,2.288,2.288,0,0,1,.493-.661,1.75,1.75,0,0,1,.668-.373,3.14,3.14,0,0,1,.922-.12,4.546,4.546,0,0,1,.528.029,4.2,4.2,0,0,1,.528.1Z" transform="translate(-599.133 -117.471)" fill="#00126f"/><path d="M651.481,125.661a3.4,3.4,0,0,1-.063.619q-.064.338-.176.76c-.028.084-.063.2-.105.352s-.087.306-.134.464-.094.314-.141.465-.085.267-.113.352q-.085.281-.176.605c-.061.216-.12.436-.176.661s-.092.432-.133.648-.083.422-.12.619h-1.183a3.419,3.419,0,0,1,.043-.352q.042-.281.127-.647a3.48,3.48,0,0,1-1.175.858,3.282,3.282,0,0,1-1.3.268,2.789,2.789,0,0,1-.809-.112,1.917,1.917,0,0,1-.648-.331,1.5,1.5,0,0,1-.429-.549,1.791,1.791,0,0,1-.155-.767,2.163,2.163,0,0,1,.408-1.316,2.8,2.8,0,0,1,1.1-.88,4.175,4.175,0,0,1,1.027-.317,12.929,12.929,0,0,1,1.421-.162c.188-.019.42-.03.7-.035s.551-.007.823-.007l.1-.366a2.786,2.786,0,0,0,.1-.689.984.984,0,0,0-.317-.774,1.466,1.466,0,0,0-.992-.281,1.957,1.957,0,0,0-1.168.323,1.514,1.514,0,0,0-.591.915h-1.224a2.229,2.229,0,0,1,.338-.872,2.164,2.164,0,0,1,.655-.634,3.065,3.065,0,0,1,.936-.38,5,5,0,0,1,1.154-.127,3.2,3.2,0,0,1,1.752.422A1.408,1.408,0,0,1,651.481,125.661Zm-1.6,1.942q-.689.028-1.182.063t-.844.091a3.681,3.681,0,0,0-.6.141,4.594,4.594,0,0,0-.457.183,1.789,1.789,0,0,0-.675.57,1.347,1.347,0,0,0-.254.795,1.013,1.013,0,0,0,.317.809,1.323,1.323,0,0,0,.894.275,1.894,1.894,0,0,0,1.133-.359,3.927,3.927,0,0,0,.866-.852,4.021,4.021,0,0,0,.289-.457,6.726,6.726,0,0,0,.288-.627Z" transform="translate(-603.616 -120.918)" fill="#00126f"/><path d="M668.058,125.731a2.973,2.973,0,0,1-.021.345,3.96,3.96,0,0,1-.092.457h-1.211a2.644,2.644,0,0,0,.1-.647,1.045,1.045,0,0,0-.323-.823,1.4,1.4,0,0,0-.957-.289,2.291,2.291,0,0,0-1.359.437,3.64,3.64,0,0,0-1.034,1.168,5.391,5.391,0,0,0-.521,1.211,4.445,4.445,0,0,0-.2,1.266,1.708,1.708,0,0,0,.408,1.2,1.564,1.564,0,0,0,1.21.443,2.045,2.045,0,0,0,1.288-.408,2.3,2.3,0,0,0,.767-1.112h1.267a3.326,3.326,0,0,1-1.259,1.724,3.718,3.718,0,0,1-2.188.626,2.819,2.819,0,0,1-2.034-.683,2.389,2.389,0,0,1-.711-1.808,5.2,5.2,0,0,1,.408-2.02,5.037,5.037,0,0,1,1.126-1.682,3.837,3.837,0,0,1,1.33-.887,4.423,4.423,0,0,1,1.612-.282,3.9,3.9,0,0,1,.964.113,2.264,2.264,0,0,1,.76.337,1.6,1.6,0,0,1,.492.556A1.576,1.576,0,0,1,668.058,125.731Z" transform="translate(-612.424 -120.918)" fill="#00126f"/><path d="M681.559,122.991H679.87l-1.14,3.885a3.323,3.323,0,0,0-.183.873.552.552,0,0,0,.19.443.912.912,0,0,0,.6.162,3.226,3.226,0,0,0,.394-.021,3.969,3.969,0,0,0,.408-.077l-.239.872c-.216.047-.392.083-.528.106a3.007,3.007,0,0,1-.5.035q-1.59,0-1.59-1.267a2.563,2.563,0,0,1,.049-.493q.049-.253.162-.648l1.168-3.87H677.2l.267-.873h1.45l.381-1.309,1.393-.591-.549,1.9h1.689Z" transform="translate(-620.929 -118.924)" fill="#00126f"/><path d="M692.083,129.536q-.155.506-.267.943t-.225.887h-1.239l.3-1.154a4.442,4.442,0,0,1-1.224.979,2.927,2.927,0,0,1-1.351.317,2.091,2.091,0,0,1-1.442-.458,1.58,1.58,0,0,1-.514-1.245,3.307,3.307,0,0,1,.1-.746q.1-.422.2-.746l1.2-4.039h1.224l-1.224,4.138c-.047.179-.1.378-.148.6a2.655,2.655,0,0,0-.077.6.971.971,0,0,0,.267.717,1.133,1.133,0,0,0,.831.268,2.515,2.515,0,0,0,1.759-.8,3.571,3.571,0,0,0,.668-.88,5.653,5.653,0,0,0,.429-1.049l1.083-3.589h1.239Z" transform="translate(-625.669 -121.078)" fill="#00126f"/><path d="M707.779,125.216a1.492,1.492,0,0,0-.288-.056c-.1-.01-.2-.014-.3-.014a2.129,2.129,0,0,0-1.555.633,4.3,4.3,0,0,0-1.006,1.858l-1.083,3.617h-1.211l1.6-5.545q.1-.324.176-.669t.2-.88H705.5l-.324,1.295a3.657,3.657,0,0,1,1.126-1.062,2.635,2.635,0,0,1,1.308-.331h.225a1.141,1.141,0,0,1,.24.028Z" transform="translate(-634.285 -120.966)" fill="#00126f"/><path d="M714.59,127.871h-1.238l2.069-7.093h1.239Zm2.7-8.951h-1.379l.366-1.224h1.379Z" transform="translate(-640.141 -117.584)" fill="#00126f"/><path d="M727.8,125.675a3.33,3.33,0,0,1-.1.746q-.1.422-.2.746l-1.2,4.039h-1.239l1.239-4.138c.066-.216.12-.423.162-.619a2.694,2.694,0,0,0,.063-.563.957.957,0,0,0-.288-.725,1.149,1.149,0,0,0-.823-.274,2.5,2.5,0,0,0-1.745.8,3.732,3.732,0,0,0-.668.859,5.37,5.37,0,0,0-.444,1.07l-1.07,3.589h-1.239l1.576-5.264q.127-.422.254-.9t.24-.929h1.238l-.31,1.154a4.38,4.38,0,0,1,1.232-.978,2.962,2.962,0,0,1,1.358-.317,2.1,2.1,0,0,1,1.435.457A1.575,1.575,0,0,1,727.8,125.675Z" transform="translate(-643.811 -120.918)" fill="#00126f"/><path d="M743.243,130.711a9.331,9.331,0,0,1-.612,1.625,3.445,3.445,0,0,1-.739.992,2.576,2.576,0,0,1-1.105.577,6.089,6.089,0,0,1-1.513.169,4.677,4.677,0,0,1-1.069-.112,2.339,2.339,0,0,1-.8-.337,1.753,1.753,0,0,1-.535-.613,1.7,1.7,0,0,1-.211-.823,1.75,1.75,0,0,1,.028-.338h1.252a.726.726,0,0,0-.013.134v.134a1.024,1.024,0,0,0,.38.859,1.8,1.8,0,0,0,1.07.267,3.183,3.183,0,0,0,.838-.1,1.976,1.976,0,0,0,.626-.288,1.934,1.934,0,0,0,.464-.471,4.192,4.192,0,0,0,.366-.648,5.758,5.758,0,0,0,.324-.823q.126-.415.267-.837a3.41,3.41,0,0,1-1.02.788,2.9,2.9,0,0,1-1.33.3,2.294,2.294,0,0,1-1.759-.69,2.563,2.563,0,0,1-.648-1.829,4.928,4.928,0,0,1,.281-1.654,5.525,5.525,0,0,1,.746-1.428,4.442,4.442,0,0,1,1.3-1.2,3.064,3.064,0,0,1,1.6-.45,2.68,2.68,0,0,1,1.379.338,1.841,1.841,0,0,1,.816,1.041l.352-1.208h1.239Zm-.043-4.157a1.821,1.821,0,0,0-.422-1.242,1.484,1.484,0,0,0-1.182-.485,2.124,2.124,0,0,0-1.182.358,3.144,3.144,0,0,0-.929.948,4.286,4.286,0,0,0-.507,1.144,4.732,4.732,0,0,0-.183,1.312,1.833,1.833,0,0,0,.394,1.207,1.411,1.411,0,0,0,1.154.478,2.275,2.275,0,0,0,1.1-.274,2.524,2.524,0,0,0,.859-.765,4.662,4.662,0,0,0,.38-.631,4.719,4.719,0,0,0,.282-.695,5.924,5.924,0,0,0,.176-.709A3.642,3.642,0,0,0,743.2,126.554Z" transform="translate(-652.523 -120.886)" fill="#00126f"/><path d="M772.712,119.553a2.87,2.87,0,0,1-.021.31c-.014.122-.03.235-.049.337h-1.3a2.4,2.4,0,0,0,.056-.493,1.112,1.112,0,0,0-.485-.971,2.272,2.272,0,0,0-1.316-.338,3.141,3.141,0,0,0-.95.141,2.614,2.614,0,0,0-.774.387,1.921,1.921,0,0,0-.528.591,1.488,1.488,0,0,0-.2.753,1.31,1.31,0,0,0,.112.563,1.452,1.452,0,0,0,.309.429,2.475,2.475,0,0,0,.458.344q.26.155.556.3l.887.422q.464.226.83.45a3.055,3.055,0,0,1,.619.493,1.83,1.83,0,0,1,.521,1.337,2.931,2.931,0,0,1-.324,1.351,3.3,3.3,0,0,1-.859,1.07,4.789,4.789,0,0,1-3.054.872,4.044,4.044,0,0,1-2.358-.591,1.957,1.957,0,0,1-.837-1.7,3.213,3.213,0,0,1,.141-.9h1.307c-.06.169-.1.309-.135.422a1.433,1.433,0,0,0-.044.366,1.277,1.277,0,0,0,.176.69,1.337,1.337,0,0,0,.466.45,2.2,2.2,0,0,0,.649.246,3.423,3.423,0,0,0,.727.077,3.024,3.024,0,0,0,2.033-.619,2.13,2.13,0,0,0,.515-.661,1.767,1.767,0,0,0,.191-.8,1.291,1.291,0,0,0-.408-.979,4.485,4.485,0,0,0-1.21-.753l-.859-.394a3.887,3.887,0,0,1-1.3-.908,2.068,2.068,0,0,1-.471-1.429,2.45,2.45,0,0,1,.309-1.224,2.844,2.844,0,0,1,.843-.929,4.145,4.145,0,0,1,1.264-.591,5.579,5.579,0,0,1,1.559-.211,3.65,3.65,0,0,1,2.17.563A1.793,1.793,0,0,1,772.712,119.553Z" transform="translate(-667.06 -117.456)" fill="#00126f"/><path d="M789.587,126.431a5.484,5.484,0,0,1-.309,1.816,5.959,5.959,0,0,1-.829,1.59,3.405,3.405,0,0,1-1.342,1.105,4.364,4.364,0,0,1-1.847.373,2.917,2.917,0,0,1-2.107-.7,2.516,2.516,0,0,1-.73-1.9,5.323,5.323,0,0,1,.331-1.864,4.809,4.809,0,0,1,.921-1.555,3.913,3.913,0,0,1,1.4-1.041,4.29,4.29,0,0,1,1.713-.338,2.909,2.909,0,0,1,2.057.683A2.383,2.383,0,0,1,789.587,126.431Zm-1.267.056a1.835,1.835,0,0,0-.409-1.288,1.622,1.622,0,0,0-1.252-.443,2.206,2.206,0,0,0-1.281.387,3.44,3.44,0,0,0-.985,1.091,5.091,5.091,0,0,0-.534,1.253,4.77,4.77,0,0,0-.183,1.28,1.68,1.68,0,0,0,.457,1.253,1.715,1.715,0,0,0,1.26.45,2.3,2.3,0,0,0,1.358-.422,3.055,3.055,0,0,0,.978-1.225,5.792,5.792,0,0,0,.437-1.182A4.806,4.806,0,0,0,788.32,126.488Z" transform="translate(-676.842 -120.886)" fill="#00126f"/><path d="M799.607,127.871h-1.238l3-10.175h1.225Z" transform="translate(-685.315 -117.584)" fill="#00126f"/><path d="M812.175,129.536q-.156.506-.267.943t-.225.887h-1.238l.3-1.154a4.446,4.446,0,0,1-1.225.979,2.923,2.923,0,0,1-1.35.317,2.094,2.094,0,0,1-1.443-.458,1.581,1.581,0,0,1-.513-1.245,3.3,3.3,0,0,1,.1-.746q.1-.422.2-.746l1.2-4.039h1.225L807.7,128.41q-.07.268-.147.6a2.643,2.643,0,0,0-.078.6.97.97,0,0,0,.267.717,1.133,1.133,0,0,0,.831.268,2.516,2.516,0,0,0,1.759-.8,3.555,3.555,0,0,0,.668-.88,5.616,5.616,0,0,0,.429-1.049l1.084-3.589h1.238Z" transform="translate(-689.48 -121.078)" fill="#00126f"/><path d="M828.168,122.991h-1.689l-1.14,3.885a3.3,3.3,0,0,0-.183.873.552.552,0,0,0,.19.443.914.914,0,0,0,.6.162,3.229,3.229,0,0,0,.394-.021,4.023,4.023,0,0,0,.408-.077l-.239.872q-.324.071-.528.106a3,3,0,0,1-.5.035q-1.591,0-1.59-1.267a2.55,2.55,0,0,1,.05-.493c.033-.169.086-.384.162-.648l1.168-3.87H823.8l.268-.873h1.449l.381-1.309,1.393-.591-.549,1.9h1.689Z" transform="translate(-698.831 -118.924)" fill="#00126f"/><path d="M833.031,127.871h-1.238l2.069-7.093H835.1Zm2.7-8.951h-1.379l.366-1.224H836.1Z" transform="translate(-703.075 -117.584)" fill="#00126f"/><path d="M846.734,126.431a5.488,5.488,0,0,1-.309,1.816,5.943,5.943,0,0,1-.829,1.59,3.4,3.4,0,0,1-1.342,1.105,4.363,4.363,0,0,1-1.847.373,2.917,2.917,0,0,1-2.107-.7,2.516,2.516,0,0,1-.731-1.9,5.325,5.325,0,0,1,.331-1.864,4.814,4.814,0,0,1,.922-1.555,3.916,3.916,0,0,1,1.4-1.041,4.291,4.291,0,0,1,1.713-.338,2.912,2.912,0,0,1,2.057.683A2.383,2.383,0,0,1,846.734,126.431Zm-1.267.056a1.837,1.837,0,0,0-.408-1.288,1.623,1.623,0,0,0-1.253-.443,2.2,2.2,0,0,0-1.28.387,3.448,3.448,0,0,0-.986,1.091,5.087,5.087,0,0,0-.534,1.253,4.781,4.781,0,0,0-.183,1.28,1.68,1.68,0,0,0,.457,1.253,1.716,1.716,0,0,0,1.26.45,2.3,2.3,0,0,0,1.357-.422,3.052,3.052,0,0,0,.978-1.225,5.739,5.739,0,0,0,.437-1.182A4.787,4.787,0,0,0,845.467,126.488Z" transform="translate(-707.207 -120.886)" fill="#00126f"/><path d="M863.06,125.675a3.339,3.339,0,0,1-.1.746q-.1.422-.2.746l-1.2,4.039h-1.238l1.238-4.138c.066-.216.12-.423.162-.619a2.687,2.687,0,0,0,.063-.563.955.955,0,0,0-.288-.725,1.149,1.149,0,0,0-.823-.274,2.5,2.5,0,0,0-1.745.8,3.754,3.754,0,0,0-.669.859,5.4,5.4,0,0,0-.443,1.07l-1.069,3.589h-1.239l1.576-5.264q.126-.422.253-.9t.239-.929h1.239l-.31,1.154a4.382,4.382,0,0,1,1.232-.978,2.961,2.961,0,0,1,1.358-.317,2.1,2.1,0,0,1,1.435.457A1.574,1.574,0,0,1,863.06,125.675Z" transform="translate(-715.68 -120.918)" fill="#00126f"/><path d="M877.776,126.023v-.071a1.21,1.21,0,0,0-.325-.907,1.392,1.392,0,0,0-1-.317,1.938,1.938,0,0,0-1.1.3.906.906,0,0,0-.445.788.754.754,0,0,0,.24.576,2.848,2.848,0,0,0,.707.45l.82.38q.339.155.622.317a2.351,2.351,0,0,1,.487.366,1.478,1.478,0,0,1,.318.471,1.629,1.629,0,0,1,.113.634,1.939,1.939,0,0,1-.254,1.006,2.242,2.242,0,0,1-.678.718,3.148,3.148,0,0,1-.994.436,4.8,4.8,0,0,1-1.206.148,3.79,3.79,0,0,1-.945-.12,2.577,2.577,0,0,1-.833-.373,1.958,1.958,0,0,1-.592-.647,1.868,1.868,0,0,1-.226-.943v-.211h1.2v.127a1.254,1.254,0,0,0,.4.964,1.642,1.642,0,0,0,1.161.373,2.454,2.454,0,0,0,.647-.084,1.844,1.844,0,0,0,.549-.247,1.236,1.236,0,0,0,.38-.4,1.04,1.04,0,0,0,.141-.535.947.947,0,0,0-.19-.606,1.662,1.662,0,0,0-.641-.436l-.929-.422a3.6,3.6,0,0,1-1.147-.732,1.394,1.394,0,0,1-.359-1,1.738,1.738,0,0,1,.226-.894,2.076,2.076,0,0,1,.621-.661,2.921,2.921,0,0,1,.924-.415,4.332,4.332,0,0,1,1.122-.141,2.839,2.839,0,0,1,1.778.493,1.756,1.756,0,0,1,.635,1.478v.141Z" transform="translate(-724.696 -120.886)" fill="#00126f"/></g><g transform="translate(102.339 1.728)"><g transform="translate(0 0)"><path d="M289.6,43.457H270.953l-1.773,6.185h17.646l-1.91,6.64H267.269l-1.91,6.549h19.056l-1.91,6.731H253.9l9.415-32.837h28.2Z" transform="translate(-253.898 -36.726)" fill="#00126f"/><path d="M332.4,69.563h-8.732l9.414-32.837h8.732Z" transform="translate(-290.973 -36.726)" fill="#00126f"/><path d="M386.751,65.283a13.277,13.277,0,0,1-.25,2.638q-.251,1.228-.614,2.547H365.194a8.439,8.439,0,0,0-.227,1.865,3.213,3.213,0,0,0,1.251,2.91,5.664,5.664,0,0,0,3.162.819,9.041,9.041,0,0,0,3.55-.637,5.485,5.485,0,0,0,2.548-2.456h9.192a12.146,12.146,0,0,1-2.952,3.934,14.107,14.107,0,0,1-3.884,2.387,18.2,18.2,0,0,1-4.383,1.182,32.11,32.11,0,0,1-4.451.318,30.235,30.235,0,0,1-4.27-.318,13.155,13.155,0,0,1-4.111-1.273,8.285,8.285,0,0,1-3.111-2.728,8,8,0,0,1-1.226-4.64,14.328,14.328,0,0,1,5.335-11.415,18.125,18.125,0,0,1,5.791-3.093,22.522,22.522,0,0,1,7.084-1.091,23.2,23.2,0,0,1,4.472.432,11.975,11.975,0,0,1,3.929,1.478,8.313,8.313,0,0,1,2.793,2.774A8.184,8.184,0,0,1,386.751,65.283Zm-8.687-1.137a3.276,3.276,0,0,0-.364-1.637,2.765,2.765,0,0,0-.956-1,3.852,3.852,0,0,0-1.364-.5,9.149,9.149,0,0,0-1.592-.136,6.958,6.958,0,0,0-4.32,1.342,8.925,8.925,0,0,0-2.774,3.616h11.1c.06-.273.12-.546.182-.819A3.993,3.993,0,0,0,378.065,64.146Z" transform="translate(-308.299 -47.091)" fill="#00126f"/><path d="M456,63.873v.659a3.2,3.2,0,0,1-.09.659h-9.1a1.508,1.508,0,0,0,.045-.364v-.364a2.726,2.726,0,0,0-1.133-2.547,5.358,5.358,0,0,0-2.809-.682,7.057,7.057,0,0,0-3.6.932,8.908,8.908,0,0,0-2.719,2.434,12.236,12.236,0,0,0-2.334,7.049,3.738,3.738,0,0,0,1.271,3.161,5.357,5.357,0,0,0,3.358.978,6.673,6.673,0,0,0,3.857-1.114,5.983,5.983,0,0,0,2.314-3.3h9.166a12.974,12.974,0,0,1-2.592,4.525,13.175,13.175,0,0,1-3.775,2.888,16.7,16.7,0,0,1-4.662,1.546,29.354,29.354,0,0,1-5.207.455,33.178,33.178,0,0,1-4.5-.318,14.291,14.291,0,0,1-4.229-1.228,8.16,8.16,0,0,1-3.138-2.593,7.307,7.307,0,0,1-1.228-4.411,13.749,13.749,0,0,1,1.569-6.549,15.887,15.887,0,0,1,4.207-5.049,19.906,19.906,0,0,1,6.094-3.251,22.575,22.575,0,0,1,7.232-1.16,24.841,24.841,0,0,1,3.934.341,14.7,14.7,0,0,1,3.911,1.182,8.229,8.229,0,0,1,2.979,2.319A5.9,5.9,0,0,1,456,63.873Z" transform="translate(-344.755 -47.091)" fill="#00126f"/><path d="M516.925,54.619h-7.185q-.183.681-.637,2.069t-.91,2.934q-.454,1.547-.8,2.979a10.3,10.3,0,0,0-.342,2.206,2.06,2.06,0,0,0,.273,1.114,1.828,1.828,0,0,0,.705.659,2.852,2.852,0,0,0,1,.3,9.726,9.726,0,0,0,1.16.068,14.622,14.622,0,0,0,1.637-.091l1.637-.181-1.546,5.366q-1.457.227-2.911.387a26.94,26.94,0,0,1-2.911.159q-1.32,0-2.8-.136a9.715,9.715,0,0,1-2.729-.637,5.03,5.03,0,0,1-2.07-1.5,4.186,4.186,0,0,1-.818-2.729,9.227,9.227,0,0,1,.136-1.569,13.681,13.681,0,0,1,.363-1.569l2.82-9.824h-5.276l1.547-5.412h5.275l1.319-4.639,9.642-3.184-2.229,7.823h7.186Z" transform="translate(-382.397 -39.201)" fill="#00126f"/><path d="M561.555,63.418a13.343,13.343,0,0,0-2.274-.182,9.94,9.94,0,0,0-3.366.568,10.126,10.126,0,0,0-2.888,1.592A10.361,10.361,0,0,0,550.8,67.83a11.527,11.527,0,0,0-1.433,3.093l-2.592,9.005h-8.732l5.185-18.146q.363-1.182.659-2.342t.523-2.342h8.459l-1.182,4.685a14,14,0,0,1,4.685-4.093,12.652,12.652,0,0,1,6.049-1.456h.637a2.808,2.808,0,0,1,.545.046Z" transform="translate(-404.879 -47.091)" fill="#00126f"/><path d="M620.57,65.283a13.234,13.234,0,0,1-1.754,6.958,15.264,15.264,0,0,1-4.576,4.82,20.159,20.159,0,0,1-6.444,2.82,30.1,30.1,0,0,1-7.355.909,28.042,28.042,0,0,1-4.8-.432,16.223,16.223,0,0,1-4.554-1.479,9.58,9.58,0,0,1-3.393-2.8,7,7,0,0,1-1.32-4.343,12.619,12.619,0,0,1,1.8-6.777,16.032,16.032,0,0,1,4.668-4.866,20.905,20.905,0,0,1,6.467-2.911,27.784,27.784,0,0,1,7.15-.955,26.807,26.807,0,0,1,4.987.478,16.555,16.555,0,0,1,4.554,1.524,9.283,9.283,0,0,1,3.3,2.8A7.036,7.036,0,0,1,620.57,65.283Zm-9.368.5a4.554,4.554,0,0,0-.455-2.138,3.952,3.952,0,0,0-1.228-1.409,4.943,4.943,0,0,0-1.8-.774,9.96,9.96,0,0,0-2.161-.227,9.271,9.271,0,0,0-3.889.819,10.33,10.33,0,0,0-3.115,2.16,9.98,9.98,0,0,0-2.069,3.093,9.194,9.194,0,0,0-.751,3.661,4.94,4.94,0,0,0,.455,2.228,4.025,4.025,0,0,0,1.228,1.478,5.308,5.308,0,0,0,1.8.842,8.378,8.378,0,0,0,2.161.273,9.375,9.375,0,0,0,3.843-.8,9.809,9.809,0,0,0,3.115-2.16,10.376,10.376,0,0,0,2.092-3.184A9.782,9.782,0,0,0,611.2,65.783Z" transform="translate(-430.558 -47.091)" fill="#00126f"/><path d="M692.691,63.509a12.386,12.386,0,0,1-.227,2.228q-.228,1.228-.5,2.183l-3.5,12.007H679.73l3.411-11.689a7.661,7.661,0,0,0,.341-1.342,8.747,8.747,0,0,0,.114-1.387,3.239,3.239,0,0,0-1.183-2.865,5.327,5.327,0,0,0-3.093-.819,7.4,7.4,0,0,0-3.184.682,9.086,9.086,0,0,0-2.593,1.819,11.517,11.517,0,0,0-1.933,2.569,14.593,14.593,0,0,0-1.25,2.979L667.5,79.927h-8.732l5.185-18.146q.363-1.182.659-2.342t.523-2.342h8.46l-.956,4.093q.819-.819,1.865-1.705a13.968,13.968,0,0,1,2.387-1.614,14.342,14.342,0,0,1,2.957-1.182,12.956,12.956,0,0,1,3.524-.455,16.122,16.122,0,0,1,3.412.364,9.118,9.118,0,0,1,3,1.205A6.352,6.352,0,0,1,691.9,60.03,6.918,6.918,0,0,1,692.691,63.509Z" transform="translate(-469.025 -47.091)" fill="#00126f"/><path d="M739.5,69.563H730.77l6.549-22.831h8.732Zm8-26.47h-9.551l1.819-6.367h9.551Z" transform="translate(-507.286 -36.726)" fill="#00126f"/><path d="M794.292,63.873v.659a3.212,3.212,0,0,1-.091.659h-9.1a1.526,1.526,0,0,0,.045-.364v-.364a2.726,2.726,0,0,0-1.133-2.547,5.358,5.358,0,0,0-2.81-.682,7.059,7.059,0,0,0-3.6.932,8.909,8.909,0,0,0-2.719,2.434,12.236,12.236,0,0,0-2.334,7.049,3.739,3.739,0,0,0,1.27,3.161,5.359,5.359,0,0,0,3.358.978,6.676,6.676,0,0,0,3.857-1.114,5.983,5.983,0,0,0,2.313-3.3h9.167a13,13,0,0,1-2.592,4.525,13.2,13.2,0,0,1-3.775,2.888,16.724,16.724,0,0,1-4.661,1.546,29.366,29.366,0,0,1-5.208.455,33.173,33.173,0,0,1-4.5-.318,14.278,14.278,0,0,1-4.229-1.228,8.164,8.164,0,0,1-3.139-2.593,7.31,7.31,0,0,1-1.227-4.411,13.751,13.751,0,0,1,1.569-6.549,15.886,15.886,0,0,1,4.207-5.049,19.9,19.9,0,0,1,6.094-3.251,22.572,22.572,0,0,1,7.231-1.16,24.818,24.818,0,0,1,3.934.341,14.7,14.7,0,0,1,3.911,1.182,8.231,8.231,0,0,1,2.98,2.319A5.9,5.9,0,0,1,794.292,63.873Z" transform="translate(-524.509 -47.091)" fill="#00126f"/><path d="M856.221,62.008a11.437,11.437,0,0,1-.136,1.865h-8.732a4.049,4.049,0,0,0,.091-.773,1.824,1.824,0,0,0-.316-1.137,2.131,2.131,0,0,0-.814-.637,3.593,3.593,0,0,0-1.085-.3,10.309,10.309,0,0,0-1.174-.068,7.537,7.537,0,0,0-1.221.113,5.334,5.334,0,0,0-1.288.387,3,3,0,0,0-1.017.728,1.706,1.706,0,0,0-.406,1.182q0,1.047,1.337,1.524a32.217,32.217,0,0,0,3.513.978l1.678.364q1.5.319,2.878.727a11.375,11.375,0,0,1,2.448,1.023,5.568,5.568,0,0,1,1.724,1.5,3.536,3.536,0,0,1,.657,2.16,6.694,6.694,0,0,1-1.319,4.184,9.915,9.915,0,0,1-3.479,2.82,18.492,18.492,0,0,1-4.912,1.614,29.815,29.815,0,0,1-5.571.523q-1.638,0-3.639-.181a15.237,15.237,0,0,1-3.775-.819,7.865,7.865,0,0,1-2.956-1.819,4.364,4.364,0,0,1-1.182-3.229q0-.546.023-1.069a4.6,4.6,0,0,1,.114-.887h8.914a4.841,4.841,0,0,0-.091.955,2.018,2.018,0,0,0,.319,1.183,2.117,2.117,0,0,0,.841.7,3.956,3.956,0,0,0,1.137.341,8.113,8.113,0,0,0,1.205.091,12.482,12.482,0,0,0,1.638-.114,5.859,5.859,0,0,0,1.592-.432,3.251,3.251,0,0,0,1.2-.887,2.293,2.293,0,0,0,.477-1.524q0-.819-1.091-1.3a17.5,17.5,0,0,0-2.729-.887l-1.773-.409q-1.638-.364-3.184-.819a12.49,12.49,0,0,1-2.729-1.137,6.334,6.334,0,0,1-1.91-1.637,3.781,3.781,0,0,1-.728-2.365,5.579,5.579,0,0,1,1.3-3.662,10.414,10.414,0,0,1,3.343-2.615,17.517,17.517,0,0,1,4.525-1.546,24.47,24.47,0,0,1,4.843-.5q1.456,0,3.434.159a16.652,16.652,0,0,1,3.752.728,7.959,7.959,0,0,1,3.025,1.728A4.1,4.1,0,0,1,856.221,62.008Z" transform="translate(-558.696 -47.091)" fill="#00126f"/></g></g><path d="M40.668,65.113a16.335,16.335,0,0,0,5.118,1.921,28.952,28.952,0,0,0,5.7.567,30.889,30.889,0,0,0,10.076-1.5,20.364,20.364,0,0,0,2.357-.989Zm7.69-10.99H35.593c-.042.553-.066,1.106-.066,1.654a14.563,14.563,0,0,0,.1,1.729H48.354A22.042,22.042,0,0,1,48.359,54.123ZM39.37,43.129a25.02,25.02,0,0,0-1.828,3.388H49.961a28.4,28.4,0,0,1,1.415-3.388Zm36.55,0a10.361,10.361,0,0,0-.506-2.109,8.64,8.64,0,0,0-.773-1.64,11.07,11.07,0,0,0-1.326-1.748H61.49a8.394,8.394,0,0,1,1.434,3.388,15.64,15.64,0,0,1,.3,2.109,22.1,22.1,0,0,1,0,3.388c-.052.684-.131,1.387-.244,2.109a30.39,30.39,0,0,1-.712,3.388l-.014.056q-.288,1.054-.633,2.053a29.107,29.107,0,0,1-1.411,3.384,23.453,23.453,0,0,1-1.19,2.109A14.5,14.5,0,0,1,56.152,63H67.311a23.626,23.626,0,0,0,2.1-1.814,20.145,20.145,0,0,0,1.448-1.575A20.957,20.957,0,0,0,72.185,57.8c.066-.1.127-.2.187-.3a24.469,24.469,0,0,0,1.776-3.384c.042-.1.084-.2.127-.3.244-.6.469-1.2.661-1.809A22.74,22.74,0,0,0,75.6,49.5c.061-.291.112-.586.159-.876.117-.708.2-1.411.244-2.109.033-.478.052-.956.052-1.429A13.793,13.793,0,0,0,75.92,43.129Zm-10.1-9.476a27.043,27.043,0,0,0-5.727-.614A29.169,29.169,0,0,0,50.2,34.628a23.013,23.013,0,0,0-2.132.9H70.694A16,16,0,0,0,65.816,33.653Zm-23.559,5.98a17.626,17.626,0,0,0-1.322,1.387H52.562a14.725,14.725,0,0,1,2.863-3.388H44.6A22.3,22.3,0,0,0,42.257,39.633Zm-5.539,8.993a24.134,24.134,0,0,0-.736,2.742c-.042.216-.084.431-.122.647H48.6a30.391,30.391,0,0,1,.712-3.388Zm11.936,10.99H36.08a9,9,0,0,0,.858,1.846A10.741,10.741,0,0,0,38.09,63h12A8.365,8.365,0,0,1,48.654,59.616Z" transform="translate(-35.527 -33.039)" fill="#00126f"/><path d="M151.7,49.889a14.554,14.554,0,0,0-3.342-1.569q-1.91-.636-4.094-1.137l-3.047-.727a15.7,15.7,0,0,1-3.684-1.319,2.134,2.134,0,0,1-1.319-1.864,2.722,2.722,0,0,1,.728-1.979,4.975,4.975,0,0,1,1.751-1.16,9.266,9.266,0,0,1,2.16-.568,14.681,14.681,0,0,1,2-.159,16.611,16.611,0,0,1,1.956.114,6.537,6.537,0,0,1,1.683.409,2.711,2.711,0,0,1,1.16.864,2.379,2.379,0,0,1,.432,1.478c0,.152-.008.318-.023.5a4.593,4.593,0,0,1-.068.5h9.46a5.478,5.478,0,0,0,.227-1.205q.045-.614.045-1.3a5.6,5.6,0,0,0-1.387-3.957,9.556,9.556,0,0,0-3.434-2.342,17.167,17.167,0,0,0-4.411-1.136,35.137,35.137,0,0,0-4.32-.3,34.185,34.185,0,0,0-4.048.25,29.039,29.039,0,0,0-4.116.8,19.917,19.917,0,0,0-3.82,1.456,12.986,12.986,0,0,0-3.184,2.251,9.9,9.9,0,0,0-2.183,3.139,10.2,10.2,0,0,0-.8,4.162,5.1,5.1,0,0,0,.819,2.933,7.807,7.807,0,0,0,2.138,2.092,13.147,13.147,0,0,0,3,1.478q1.683.591,3.457,1.046l2.638.682q1.409.365,2.592.728a13.512,13.512,0,0,1,2.047.8,4.573,4.573,0,0,1,1.342.955,1.792,1.792,0,0,1,.478,1.25,2.906,2.906,0,0,1-.842,2.183,5.85,5.85,0,0,1-2.047,1.274,10.086,10.086,0,0,1-2.547.591q-1.342.136-2.342.136a14.62,14.62,0,0,1-1.819-.114,5.14,5.14,0,0,1-1.683-.5,3.291,3.291,0,0,1-1.251-1.069,3.026,3.026,0,0,1-.478-1.774,6.947,6.947,0,0,1,.228-1.683h-9.551q-.183.819-.3,1.614a12.14,12.14,0,0,0-.113,1.706,6.205,6.205,0,0,0,1.364,4.184,9.267,9.267,0,0,0,3.411,2.479,16.614,16.614,0,0,0,4.388,1.2,32.47,32.47,0,0,0,4.344.319A39.7,39.7,0,0,0,142,67.012a22.23,22.23,0,0,0,6.3-2.024,13.267,13.267,0,0,0,4.662-3.82,9.584,9.584,0,0,0,1.819-5.98,5.6,5.6,0,0,0-.819-3.093A7.452,7.452,0,0,0,151.7,49.889Z" transform="translate(-81.37 -33.039)" fill="#00126f"/><path d="M204.1,34.883l-9.414,32.836h9.551L213.6,34.883Z" transform="translate(-120.094 -34.019)" fill="#00126f"/></svg>